<svg id="Capa_1" data-name="Capa 1" xmlns="http://www.w3.org/2000/svg" viewBox="0 0 1036 1080"><defs><style>.cls-1{fill:#005da2;}.cls-2{fill:#fff;}</style></defs><title>insumos</title><circle class="cls-1" cx="519" cy="540" r="501"/><path class="cls-2" d="M673.18,481.5a33.4,33.4,0,0,0-10.35-15.06c-41.45-33-83.83-50.88-126.24-54.64-6.59-25.42-6.59-43.33,0-56.51,7.56-13.2,22.62-22.61,48.06-31.09,48-12.26,81.94-46.14,88.53-84.79,5.68-35.8-12.24-69.71-50.85-95.12-9.42-6.62-20.74-3.77-26.39,5.65-5.65,8.47-3.76,20.7,5.65,26.38,17,11.29,37.68,31.05,33.91,57.44-4.7,22.62-28.26,44.3-61.2,51.83v.94c-35.79,11.29-60.3,28.26-71.59,50.85-10.39,19.8-12.27,45.24-5.68,75.36-41.44,4.73-81.95,22.62-122.45,53.7a33.48,33.48,0,0,0-10.35,15.06c-18.85,67.83-24.5,133.77-17,206.31,7.52,63.12,26.39,127.18,47.09,199.71,1.88,5.64,4.74,11.29,9.44,14.12,32,24.5,72.53,37.68,114.91,37.68s84.78-13.18,115.86-37.68c4.71-2.83,8.47-8.48,10.39-14.12,19.76-72.53,37.68-136.59,45.2-199.71C698.63,615.27,693,549.33,673.18,481.5ZM545.09,620c0,14.15-12.26,24.5-26.39,24.5s-24.5-10.35-24.5-24.5V513.54c0-14.12,10.39-25.45,24.5-25.45s26.39,11.33,26.39,25.45Z"/></svg>