<svg id="Capa_1" data-name="Capa 1" xmlns="http://www.w3.org/2000/svg" viewBox="0 0 1036 1080"><defs><style>.cls-1{fill:#005da2;}.cls-2{fill:#fff;}</style></defs><title>productos</title><circle class="cls-1" cx="519" cy="540" r="501"/><path class="cls-2" d="M776.22,658.11a106.36,106.36,0,0,0-114.8-42.7l-78.8-78.81L566,553.23l52.92,52.91a19.31,19.31,0,1,1-27.32,27.31l-52.91-53-16.62,16.73,72,72A106.46,106.46,0,0,0,696.56,824.7l-48.19-70.21a21.15,21.15,0,0,1,5.48-29.39l53.21-36.56a21.3,21.3,0,0,1,29.47,5.39l48.09,70.2A106.27,106.27,0,0,0,776.22,658.11Zm-334-220.72a19,19,0,0,1,13.62,5.67l59.06,59.05,16.62-16.63-76.63-76.62a106.48,106.48,0,0,0-104.6-153.45L399.12,325a21.21,21.21,0,0,1-5.21,29.49L341.1,391.66a21.11,21.11,0,0,1-29.49-5.21l-48.95-69.72A106.56,106.56,0,0,0,388.81,463.94l82.12,82.11,16.72-16.63-59.06-59a19.28,19.28,0,0,1,0-27.31A19,19,0,0,1,442.19,437.39Z"/><path class="cls-2" d="M503.43,637.24a9.21,9.21,0,0,1-13,0l-59.59-59.59a9.18,9.18,0,0,1,0-13l3.2-3.2a9.2,9.2,0,0,1,13,0l59.59,59.59a9.21,9.21,0,0,1,0,13Z"/><path class="cls-2" d="M477,650.46l-130.21,142L330.71,810a49.6,49.6,0,0,1-16.93,11.24,46.36,46.36,0,0,1-14.45,3.5,41.29,41.29,0,0,1-4.91.28,50.66,50.66,0,0,1-36.29-14.93,51.28,51.28,0,0,1,0-72.66l17.4-16,142-130.3Z"/><path class="cls-2" d="M743.71,347.05,719,386,697,395.34,500.4,592.06,476,567.68,672.75,371l9.36-21.82L721,324.37l2.07,2.09-28.71,24c-5,5-2.75,15.78,2.26,20.88,5.19,5.1,16.25,8.12,21.36,3l23.52-29.48Z"/></svg>