<svg id="Capa_1" data-name="Capa 1" xmlns="http://www.w3.org/2000/svg" viewBox="0 0 1036 1080"><defs><style>.cls-1{fill:#005da2;}.cls-2,.cls-3{fill:#fff;}.cls-3{fill-rule:evenodd;}</style></defs><title>seguridad</title><circle class="cls-1" cx="519" cy="540" r="501"/><path class="cls-2" d="M838.91,300.23,838.26,285H199.74l-.65,15.23a528.74,528.74,0,0,0,16.77,158.12L219,470.18h5c1,22.76,5.4,50.28,12.33,75.53,7.15,26.09,20.59,62.93,43.95,90.33l1,1.12a279.39,279.39,0,0,0,51,75.91C382.05,765.9,448.39,795,519,795s137-29.1,186.79-81.93a279.12,279.12,0,0,0,50.9-75.72l.2.08,7.63-9.67c21-26.59,32.81-61.71,39-86.48a364,364,0,0,0,10.5-71.1h5l3.14-11.83A528.74,528.74,0,0,0,838.91,300.23ZM230.45,316.82h577.1a504.25,504.25,0,0,1-5.26,80.11q-3.09,21-7.94,41.44H243.64q-4.86-20.46-7.93-41.44A503.16,503.16,0,0,1,230.45,316.82ZM519,741.47A121.47,121.47,0,1,1,640.48,620,121.61,121.61,0,0,1,519,741.47ZM257,485q.79-7.43,2-14.78H428.45a174.56,174.56,0,0,0-81.79,119.33l-1.12.34c-14.19,4.31-29.68,9-43.29,14.24-1.69.64-3.35,1.3-5,2C274,572.69,261,522.52,257,485Zm57.86,148.37c12.25-4.63,26.7-9,40-13,3.75-1.14,7.4-2.25,10.87-3.32l.1,0c0,1,0,2,0,3.06A153.16,153.16,0,0,0,428.4,743.56C379.86,721.55,339.76,682.42,314.84,633.33ZM609.61,743.56A153.17,153.17,0,0,0,672.29,620c0-3.21-.11-6.4-.31-9.57l4.08,1c16.06,4.07,34.87,8.83,50.89,14C702.42,678.25,660.7,720.39,609.61,743.56Zm136.71-145c-2.51-.91-5.11-1.8-7.76-2.68-15.51-5.14-33-9.71-48.68-13.7a175.14,175.14,0,0,0-80.45-112H779.06q1.19,7.56,2,15.2C777.59,519.72,767.06,566.29,746.32,598.52Z"/><path class="cls-3" d="M519,544.14A16.12,16.12,0,1,0,502.89,528,16.14,16.14,0,0,0,519,544.14Z"/><path class="cls-3" d="M519,728.09A16.12,16.12,0,1,0,502.89,712,16.14,16.14,0,0,0,519,728.09Z"/><path class="cls-3" d="M627.08,620A16.11,16.11,0,1,1,611,603.89,16.11,16.11,0,0,1,627.08,620Z"/><path class="cls-3" d="M443.14,620A16.12,16.12,0,1,1,427,603.89,16.11,16.11,0,0,1,443.14,620Z"/><path class="cls-3" d="M595.43,543.57a16.11,16.11,0,1,1-22.79,0A16.12,16.12,0,0,1,595.43,543.57Z"/><path class="cls-3" d="M465.36,673.64a16.11,16.11,0,1,1-22.79,0A16.12,16.12,0,0,1,465.36,673.64Z"/><path class="cls-3" d="M595.43,696.43a16.11,16.11,0,1,1,0-22.79A16.12,16.12,0,0,1,595.43,696.43Z"/><path class="cls-3" d="M465.36,566.35a16.11,16.11,0,1,1,0-22.78A16.1,16.1,0,0,1,465.36,566.35Z"/><path class="cls-2" d="M519,559.87A60.13,60.13,0,1,0,579.13,620,60.24,60.24,0,0,0,519,559.87Zm0,104.53A44.4,44.4,0,1,1,563.4,620,44.49,44.49,0,0,1,519,664.4Z"/></svg>