<svg id="Capa_1" data-name="Capa 1" xmlns="http://www.w3.org/2000/svg" viewBox="0 0 1036 1080"><defs><style>.cls-1{fill:#005da2;}.cls-2{fill:#fff;}</style></defs><title>telefonia</title><circle class="cls-1" cx="519" cy="540" r="501"/><path class="cls-2" d="M637.16,199.81l-235.35-.33c-32,0-57.95,24.36-58,54.51L343,825.52c0,30.15,25.86,54.62,57.85,54.67l235.34.33c32,.05,57.95-24.35,58-54.51L695,254.49C695,224.33,669.14,199.86,637.16,199.81Zm-20.32,31.31a8.07,8.07,0,1,1-8.26,8A8.16,8.16,0,0,1,616.84,231.12Zm-136.38-1.56,72.8.1c4.08,0,7.38,3.76,7.37,8.38s-3.32,8.35-7.39,8.34l-72.8-.1c-4.07,0-7.38-3.75-7.37-8.37S476.39,229.55,480.46,229.56Zm33.3,639a28,28,0,1,1,28-28A28,28,0,0,1,513.76,868.51Zm165.91-65.8-322.09-.45L358.34,267l322.1.46Z"/></svg>