<?xml version="1.0" encoding="utf-8"?>
<!-- Generator: Adobe Illustrator 21.0.0, SVG Export Plug-In . SVG Version: 6.00 Build 0)  -->
<svg version="1.1" id="Capa_1" xmlns="http://www.w3.org/2000/svg" xmlns:xlink="http://www.w3.org/1999/xlink" x="0px" y="0px"
	 viewBox="0 0 573 143" style="enable-background:new 0 0 573 143;" xml:space="preserve">
<style type="text/css">
	.st0{fill:#FFFFFF;}
	.st1{fill:url(#SVGID_1_);stroke:#FFFFFF;stroke-width:28.3325;stroke-miterlimit:10;}
	.st2{fill:url(#SVGID_2_);}
	.st3{fill:#00B9EF;}
</style>
<g>
	<path class="st0" d="M515.5,105.9H121.9c-11.4,0-20.7-8.9-20.7-19.9V53.9c0-11,9.3-19.9,20.7-19.9h444.2L515.5,105.9z"/>
	<g>
		
			<radialGradient id="SVGID_1_" cx="63.3658" cy="104.4713" r="84.3953" gradientTransform="matrix(1 0 0 -1 0 144)" gradientUnits="userSpaceOnUse">
			<stop  offset="0.2698" style="stop-color:#0092DF"/>
			<stop  offset="1" style="stop-color:#005DA2"/>
		</radialGradient>
		<path class="st1" d="M146.7,71.3c0-31.5-25.6-57.1-57.1-57.1c-30.9,0-56.1,24.6-57.1,55.3c0,0.6-0.1,1.2,0,1.8
			c1.2,24.3,20.9,17.2,33.1,7.5c7.6-6,12.1-13.7,12.1-13.7l-5.1-2.7l17.2-8.6l1.9,17.9l-5-2.1c0,0-16.9,30.4-46.5,26.2
			C27,93.9,25.1,67.7,24.6,70c-9.5,40,23.8,36.2,26.7,35.9c49.1-6,61.8-50,61.8-50l-7-1.3l17.1-16.5l9,20.6l-6.4-1
			c0,0-11.1,54.1-69,58.9C13,121.5,18.2,78.4,16.4,83.8c-7.1,21.7,3.3,35.4,19.3,40.1c24.8,7.2,53.8,4.6,53.8,4.6
			C121.1,128.4,146.7,102.8,146.7,71.3z"/>
	</g>
	<g>
		
			<radialGradient id="SVGID_2_" cx="63.3658" cy="104.4713" r="84.3953" gradientTransform="matrix(1 0 0 -1 0 144)" gradientUnits="userSpaceOnUse">
			<stop  offset="0.2698" style="stop-color:#0092DF"/>
			<stop  offset="1" style="stop-color:#005DA2"/>
		</radialGradient>
		<path class="st2" d="M146.7,71.3c0-31.5-25.6-57.1-57.1-57.1c-30.9,0-56.1,24.6-57.1,55.3c0,0.6-0.1,1.2,0,1.8
			c1.2,24.3,20.9,17.2,33.1,7.5c7.6-6,12.1-13.7,12.1-13.7l-5.1-2.7l17.2-8.6l1.9,17.9l-5-2.1c0,0-16.9,30.4-46.5,26.2
			C27,93.9,25.1,67.7,24.6,70c-9.5,40,23.8,36.2,26.7,35.9c49.1-6,61.8-50,61.8-50l-7-1.3l17.1-16.5l9,20.6l-6.4-1
			c0,0-11.1,54.1-69,58.9C13,121.5,18.2,78.4,16.4,83.8c-7.1,21.7,3.3,35.4,19.3,40.1c24.8,7.2,53.8,4.6,53.8,4.6
			C121.1,128.4,146.7,102.8,146.7,71.3z"/>
	</g>
	<g>
		<path class="st3" d="M185.1,47.3c8.4,0,12.7,4,12.7,11.2v1.5h-8.2V58c0-3.1-1.6-4.4-4.3-4.4c-2.7,0-4.3,1.2-4.3,4.4
			c0,9.2,16.8,10.9,16.8,23.6c0,7.2-4.4,11.2-12.9,11.2c-8.5,0-12.9-4-12.9-11.2v-2.7h8.2v3.1c0,3.1,1.7,4.4,4.5,4.4
			s4.5-1.1,4.5-4.4c0-9.2-16.8-10.9-16.8-23.6C172.4,51.3,176.7,47.3,185.1,47.3z"/>
		<path class="st3" d="M233,92.4h-8.7l-1.5-8.1h-10.5l-1.5,8.1h-7.9l8.7-44.7h12.7L233,92.4z M213.4,78.3h8.3l-4.1-22.6L213.4,78.3z
			"/>
		<path class="st3" d="M265.1,58v1.6c0,4.6-1.7,7.5-5.6,9c4.6,1.5,6.4,4.8,6.4,9.5v3.6c0,6.9-4.5,10.6-13.1,10.6h-13.5V47.8h13
			C261.3,47.8,265.1,51.2,265.1,58z M248,54.1v11.8h3.4c3.2,0,5.2-1.1,5.2-4.7v-2.5c0-3.1-1.3-4.6-4.4-4.6
			C252.2,54.1,248,54.1,248,54.1z M248,72.3V86h4.9c2.9,0,4.5-1.1,4.5-4.4v-3.9c0-4.1-1.7-5.4-5.6-5.4C251.8,72.3,248,72.3,248,72.3
			z"/>
		<path class="st3" d="M301.4,92.4h-8.7l-1.5-8.1h-10.5l-1.5,8.1h-7.9l8.7-44.7h12.5L301.4,92.4z M281.8,78.3h8.3L286,55.7
			L281.8,78.3z"/>
		<path class="st3" d="M302.3,47.8h26.5v6.4h-9v38.2h-8.6V54.1h-9V47.8z"/>
		<path class="st3" d="M343.7,66.6h11.8V73h-11.8v13.1h14.9v6.3h-23.5V47.8h23.4v6.4h-14.9v12.4H343.7z"/>
		<path class="st3" d="M391.2,75.8v5.9c0,7.2-4.4,11.2-12.9,11.2c-8.5,0-12.9-4-12.9-11.2V58.5c0-7.2,4.4-11.2,12.9-11.2
			c8.5,0,12.9,4,12.9,11.2v4.4H383V58c0-3.1-1.7-4.4-4.5-4.4c-2.7,0-4.5,1.2-4.5,4.4v24.1c0,3.1,1.7,4.4,4.5,4.4
			c2.7,0,4.5-1.1,4.5-4.4v-6.4h8.2V75.8z"/>
		<path class="st3" d="M407.4,92.4h-8.5V47.8h8.6V67h9.7V47.8h8.7v44.6h-8.7V73.2h-9.7v19.1H407.4z"/>
		<path class="st3" d="M442.4,60v32.4h-7.7V47.8h10.7l8.8,26.8V47.8h7.6v44.6H453L442.4,60z"/>
		<path class="st3" d="M469.8,58.5c0-7.2,4.6-11.2,13.1-11.2c8.5,0,13.1,4,13.1,11.2v23.2c0,7.2-4.6,11.2-13.1,11.2
			c-8.5,0-13.1-4-13.1-11.2V58.5z M478.4,82.1c0,3.1,1.7,4.4,4.5,4.4c2.8,0,4.5-1.2,4.5-4.4V58c0-3.1-1.7-4.4-4.5-4.4
			c-2.8,0-4.5,1.2-4.5,4.4V82.1z"/>
	</g>
</g>
</svg>
